<?xml version="1.0" standalone="no"?>
<!DOCTYPE svg PUBLIC "-//W3C//DTD SVG 20010904//EN"
 "http://www.w3.org/TR/2001/REC-SVG-20010904/DTD/svg10.dtd">
<svg version="1.0" xmlns="http://www.w3.org/2000/svg"
 width="409.000000pt" height="409.000000pt" viewBox="0 0 409.000000 409.000000"
 preserveAspectRatio="xMidYMid meet">
<metadata>
Created by potrace 1.11, written by Peter Selinger 2001-2013
</metadata>
<g transform="translate(0.000000,409.000000) scale(0.100000,-0.100000)"
fill="#000000" stroke="none">
<path d="M0 2045 l0 -2045 2045 0 2045 0 0 2045 0 2045 -2045 0 -2045 0 0
-2045z m580 40 c0 -24 -3 -25 -55 -25 l-55 0 0 -220 0 -220 -25 0 -25 0 0 220
0 220 -55 0 c-52 0 -55 1 -55 25 l0 25 135 0 135 0 0 -25z m120 -80 l0 -105
125 0 125 0 0 105 0 105 25 0 25 0 0 -245 0 -245 -25 0 -25 0 0 120 0 120
-125 0 -125 0 0 -120 0 -120 -25 0 -25 0 0 245 0 245 25 0 25 0 0 -105z m700
80 l0 -25 -115 0 -115 0 0 -75 0 -75 115 0 115 0 0 -25 0 -25 -115 0 -115 0 0
-95 0 -95 115 0 115 0 0 -25 0 -25 -140 0 -140 0 0 245 0 245 140 0 140 0 0
-25z m1758 -635 c24 -11 57 -30 72 -44 28 -23 28 -24 10 -41 -17 -16 -20 -15
-59 13 -152 110 -361 19 -361 -158 0 -58 23 -111 67 -152 107 -102 306 -63
338 65 l7 27 -76 0 c-74 0 -76 1 -76 25 l0 25 106 0 107 0 -7 -42 c-22 -142
-137 -223 -288 -204 -216 27 -309 284 -157 435 79 79 206 100 317 51z m-2561
-10 c41 -24 55 -51 56 -107 1 -84 -49 -122 -174 -130 l-79 -6 0 -113 0 -114
-25 0 -25 0 0 245 0 245 108 0 c88 0 113 -3 139 -20z m403 5 c38 -20 60 -63
60 -119 0 -62 -35 -101 -107 -118 l-53 -13 58 -75 c32 -41 70 -92 86 -112 l28
-38 -30 0 c-26 0 -40 13 -118 115 -49 63 -94 115 -101 115 -9 0 -13 -31 -15
-112 -3 -109 -4 -113 -25 -116 l-23 -3 0 245 0 246 105 0 c75 0 115 -4 135
-15z m210 -231 l0 -245 -22 3 -23 3 -3 243 -2 242 25 0 25 0 0 -246z m297 54
l148 -171 3 182 2 181 25 0 25 0 0 -247 0 -248 -23 25 c-13 14 -87 97 -163
184 l-139 160 -5 -180 c-5 -176 -5 -179 -27 -182 l-23 -3 0 247 c0 217 2 245
15 234 8 -7 81 -89 162 -182z m543 173 c0 -17 -8 -20 -52 -23 l-53 -3 -3 -223
-2 -223 -23 3 c-22 3 -22 4 -25 226 l-2 222 -55 0 c-48 0 -55 2 -55 20 0 19 7
20 135 20 127 0 135 -1 135 -19z m118 -223 l-3 -243 -22 -3 -23 -3 0 245 0
246 25 0 25 0 -2 -242z m282 62 c83 -96 156 -176 161 -178 5 -2 9 71 9 177 0
174 1 181 20 181 19 0 20 -7 20 -247 l-1 -248 -22 26 c-12 15 -85 99 -162 188
l-140 161 -3 -185 -2 -185 -25 0 -25 0 0 246 c0 145 4 244 9 242 5 -1 78 -82
161 -178z m-1918 -466 c38 -19 61 -54 46 -71 -15 -19 -30 -16 -57 13 -19 20
-32 24 -65 22 -33 -2 -43 -8 -54 -30 -19 -40 -3 -66 82 -135 93 -78 111 -103
111 -165 0 -40 -5 -52 -34 -82 -59 -61 -145 -61 -206 0 -38 37 -44 61 -19 71
10 3 27 -7 48 -31 26 -28 41 -36 68 -36 40 0 76 23 88 56 16 42 -7 80 -92 150
-93 77 -116 117 -99 174 24 80 99 106 183 64z m995 -11 c65 -30 109 -82 129
-152 69 -235 -197 -424 -397 -283 -151 107 -139 343 21 432 81 44 159 45 247
3z m-777 -83 l0 -100 125 0 125 0 0 100 0 100 25 0 25 0 0 -245 0 -245 -25 0
-25 0 0 120 0 120 -125 0 -125 0 0 -120 0 -120 -25 0 -25 0 0 245 0 245 25 0
25 0 0 -100z m1254 85 c68 -32 89 -136 40 -194 -30 -36 -77 -51 -161 -51 l-62
0 -3 -112 c-3 -109 -4 -113 -25 -116 l-23 -3 0 245 0 246 101 0 c70 0 111 -5
133 -15z"/>
<path d="M400 1334 l0 -86 79 3 c60 3 84 9 100 23 23 21 28 74 11 106 -13 24
-69 40 -137 40 l-53 0 0 -86z"/>
<path d="M810 1334 l0 -86 81 4 c70 3 83 6 100 27 21 25 25 71 9 101 -13 24
-69 40 -137 40 l-53 0 0 -86z"/>
<path d="M1346 776 c-92 -34 -141 -104 -141 -201 0 -116 75 -196 189 -203 69
-5 109 10 159 57 44 40 60 80 61 146 1 46 -5 70 -24 105 -47 83 -159 127 -244
96z"/>
<path d="M1820 696 l0 -86 75 0 c67 0 79 3 100 25 33 32 34 83 3 113 -18 16
-42 22 -100 28 l-78 7 0 -87z"/>
</g>
</svg>
